solid ASCII
  facet normal 1.000000e+00 0.000000e+00 -0.000000e+00
    outer loop
      vertex   5.300000e+01 5.500000e+00 2.405000e+02
      vertex   5.300000e+01 5.500000e+00 2.595000e+02
      vertex   5.300000e+01 -5.500000e+00 2.405000e+02
    endloop
  endfacet
  facet normal 1.000000e+00 0.000000e+00 0.000000e+00
    outer loop
      vertex   5.300000e+01 -5.500000e+00 2.405000e+02
      vertex   5.300000e+01 5.500000e+00 2.595000e+02
      vertex   5.300000e+01 -5.500000e+00 2.595000e+02
    endloop
  endfacet
  facet normal -1.000000e+00 0.000000e+00 0.000000e+00
    outer loop
      vertex   5.000000e+01 -1.500000e+00 2.595000e+02
      vertex   5.000000e+01 1.500000e+00 2.595000e+02
      vertex   5.000000e+01 -1.500000e+00 2.585000e+02
    endloop
  endfacet
  facet normal -1.000000e+00 0.000000e+00 0.000000e+00
    outer loop
      vertex   5.000000e+01 -1.500000e+00 2.585000e+02
      vertex   5.000000e+01 1.500000e+00 2.595000e+02
      vertex   5.000000e+01 1.500000e+00 2.585000e+02
    endloop
  endfacet
  facet normal -1.000000e+00 0.000000e+00 -0.000000e+00
    outer loop
      vertex   5.000000e+01 -1.500000e+00 2.585000e+02
      vertex   5.000000e+01 1.500000e+00 2.585000e+02
      vertex   5.000000e+01 -3.500000e+00 2.516000e+02
    endloop
  endfacet
  facet normal -1.000000e+00 0.000000e+00 0.000000e+00
    outer loop
      vertex   5.000000e+01 -3.500000e+00 2.516000e+02
      vertex   5.000000e+01 1.500000e+00 2.585000e+02
      vertex   5.000000e+01 3.500000e+00 2.516000e+02
    endloop
  endfacet
  facet normal -1.000000e+00 0.000000e+00 -0.000000e+00
    outer loop
      vertex   5.000000e+01 -3.500000e+00 2.516000e+02
      vertex   5.000000e+01 3.500000e+00 2.516000e+02
      vertex   5.000000e+01 -3.500000e+00 2.500000e+02
    endloop
  endfacet
  facet normal -1.000000e+00 0.000000e+00 0.000000e+00
    outer loop
      vertex   5.000000e+01 -3.500000e+00 2.500000e+02
      vertex   5.000000e+01 3.500000e+00 2.516000e+02
      vertex   5.000000e+01 3.500000e+00 2.500000e+02
    endloop
  endfacet
  facet normal -1.000000e+00 0.000000e+00 0.000000e+00
    outer loop
      vertex   5.000000e+01 -3.500000e+00 2.500000e+02
      vertex   5.000000e+01 3.500000e+00 2.500000e+02
      vertex   5.000000e+01 -1.500000e+00 2.420000e+02
    endloop
  endfacet
  facet normal -1.000000e+00 0.000000e+00 0.000000e+00
    outer loop
      vertex   5.000000e+01 -1.500000e+00 2.420000e+02
      vertex   5.000000e+01 3.500000e+00 2.500000e+02
      vertex   5.000000e+01 1.500000e+00 2.420000e+02
    endloop
  endfacet
  facet normal -1.000000e+00 0.000000e+00 0.000000e+00
    outer loop
      vertex   5.000000e+01 1.500000e+00 2.420000e+02
      vertex   5.000000e+01 3.500000e+00 2.500000e+02
      vertex   5.000000e+01 3.500000e+00 2.420000e+02
    endloop
  endfacet
  facet normal -1.000000e+00 0.000000e+00 0.000000e+00
    outer loop
      vertex   5.000000e+01 1.500000e+00 2.420000e+02
      vertex   5.000000e+01 3.500000e+00 2.420000e+02
      vertex   5.000000e+01 1.500000e+00 2.405000e+02
    endloop
  endfacet
  facet normal -1.000000e+00 0.000000e+00 0.000000e+00
    outer loop
      vertex   5.000000e+01 1.500000e+00 2.405000e+02
      vertex   5.000000e+01 3.500000e+00 2.420000e+02
      vertex   5.000000e+01 5.500000e+00 2.405000e+02
    endloop
  endfacet
  facet normal -1.000000e+00 0.000000e+00 0.000000e+00
    outer loop
      vertex   5.000000e+01 5.500000e+00 2.405000e+02
      vertex   5.000000e+01 3.500000e+00 2.420000e+02
      vertex   5.000000e+01 5.500000e+00 2.420000e+02
    endloop
  endfacet
  facet normal -1.000000e+00 0.000000e+00 0.000000e+00
    outer loop
      vertex   5.000000e+01 1.500000e+00 2.585000e+02
      vertex   5.000000e+01 3.500000e+00 2.585000e+02
      vertex   5.000000e+01 3.500000e+00 2.516000e+02
    endloop
  endfacet
  facet normal -1.000000e+00 0.000000e+00 0.000000e+00
    outer loop
      vertex   5.000000e+01 3.500000e+00 2.516000e+02
      vertex   5.000000e+01 5.500000e+00 2.516000e+02
      vertex   5.000000e+01 3.500000e+00 2.500000e+02
    endloop
  endfacet
  facet normal -1.000000e+00 0.000000e+00 0.000000e+00
    outer loop
      vertex   5.000000e+01 3.500000e+00 2.500000e+02
      vertex   5.000000e+01 5.500000e+00 2.516000e+02
      vertex   5.000000e+01 5.500000e+00 2.500000e+02
    endloop
  endfacet
  facet normal -1.000000e+00 0.000000e+00 0.000000e+00
    outer loop
      vertex   5.000000e+01 -3.500000e+00 2.500000e+02
      vertex   5.000000e+01 -1.500000e+00 2.420000e+02
      vertex   5.000000e+01 -3.500000e+00 2.420000e+02
    endloop
  endfacet
  facet normal -1.000000e+00 0.000000e+00 0.000000e+00
    outer loop
      vertex   5.000000e+01 -3.500000e+00 2.420000e+02
      vertex   5.000000e+01 -1.500000e+00 2.420000e+02
      vertex   5.000000e+01 -1.500000e+00 2.405000e+02
    endloop
  endfacet
  facet normal -1.000000e+00 0.000000e+00 -0.000000e+00
    outer loop
      vertex   5.000000e+01 -3.500000e+00 2.420000e+02
      vertex   5.000000e+01 -1.500000e+00 2.405000e+02
      vertex   5.000000e+01 -5.500000e+00 2.405000e+02
    endloop
  endfacet
  facet normal -1.000000e+00 0.000000e+00 0.000000e+00
    outer loop
      vertex   5.000000e+01 -5.500000e+00 2.405000e+02
      vertex   5.000000e+01 -5.500000e+00 2.420000e+02
      vertex   5.000000e+01 -3.500000e+00 2.420000e+02
    endloop
  endfacet
  facet normal -1.000000e+00 0.000000e+00 0.000000e+00
    outer loop
      vertex   5.000000e+01 -5.500000e+00 2.500000e+02
      vertex   5.000000e+01 -5.500000e+00 2.516000e+02
      vertex   5.000000e+01 -3.500000e+00 2.500000e+02
    endloop
  endfacet
  facet normal -1.000000e+00 0.000000e+00 0.000000e+00
    outer loop
      vertex   5.000000e+01 -3.500000e+00 2.500000e+02
      vertex   5.000000e+01 -5.500000e+00 2.516000e+02
      vertex   5.000000e+01 -3.500000e+00 2.516000e+02
    endloop
  endfacet
  facet normal -1.000000e+00 0.000000e+00 0.000000e+00
    outer loop
      vertex   5.000000e+01 -3.500000e+00 2.516000e+02
      vertex   5.000000e+01 -3.500000e+00 2.585000e+02
      vertex   5.000000e+01 -1.500000e+00 2.585000e+02
    endloop
  endfacet
  facet normal -0.000000e+00 -0.000000e+00 -1.000000e+00
    outer loop
      vertex   5.000000e+01 -3.500000e+00 2.420000e+02
      vertex   5.000000e+01 -5.500000e+00 2.420000e+02
      vertex   3.800000e+01 -3.500000e+00 2.420000e+02
    endloop
  endfacet
  facet normal 0.000000e+00 0.000000e+00 -1.000000e+00
    outer loop
      vertex   3.800000e+01 -3.500000e+00 2.420000e+02
      vertex   5.000000e+01 -5.500000e+00 2.420000e+02
      vertex   3.800000e+01 -5.500000e+00 2.420000e+02
    endloop
  endfacet
  facet normal 0.000000e+00 1.000000e+00 0.000000e+00
    outer loop
      vertex   5.000000e+01 -3.500000e+00 2.500000e+02
      vertex   5.000000e+01 -3.500000e+00 2.420000e+02
      vertex   3.800000e+01 -3.500000e+00 2.500000e+02
    endloop
  endfacet
  facet normal 0.000000e+00 1.000000e+00 0.000000e+00
    outer loop
      vertex   3.800000e+01 -3.500000e+00 2.500000e+02
      vertex   5.000000e+01 -3.500000e+00 2.420000e+02
      vertex   3.800000e+01 -3.500000e+00 2.420000e+02
    endloop
  endfacet
  facet normal 0.000000e+00 -0.000000e+00 1.000000e+00
    outer loop
      vertex   5.000000e+01 -5.500000e+00 2.500000e+02
      vertex   5.000000e+01 -3.500000e+00 2.500000e+02
      vertex   3.800000e+01 -5.500000e+00 2.500000e+02
    endloop
  endfacet
  facet normal 0.000000e+00 0.000000e+00 1.000000e+00
    outer loop
      vertex   3.800000e+01 -5.500000e+00 2.500000e+02
      vertex   5.000000e+01 -3.500000e+00 2.500000e+02
      vertex   3.800000e+01 -3.500000e+00 2.500000e+02
    endloop
  endfacet
  facet normal -1.000000e+00 0.000000e+00 0.000000e+00
    outer loop
      vertex   3.800000e+01 -5.500000e+00 2.420000e+02
      vertex   3.800000e+01 -5.500000e+00 2.500000e+02
      vertex   3.800000e+01 -3.500000e+00 2.420000e+02
    endloop
  endfacet
  facet normal -1.000000e+00 0.000000e+00 0.000000e+00
    outer loop
      vertex   3.800000e+01 -3.500000e+00 2.420000e+02
      vertex   3.800000e+01 -5.500000e+00 2.500000e+02
      vertex   3.800000e+01 -3.500000e+00 2.500000e+02
    endloop
  endfacet
  facet normal 0.000000e+00 -1.000000e+00 0.000000e+00
    outer loop
      vertex   5.000000e+01 3.500000e+00 2.420000e+02
      vertex   5.000000e+01 3.500000e+00 2.500000e+02
      vertex   3.800000e+01 3.500000e+00 2.420000e+02
    endloop
  endfacet
  facet normal 0.000000e+00 -1.000000e+00 0.000000e+00
    outer loop
      vertex   3.800000e+01 3.500000e+00 2.420000e+02
      vertex   5.000000e+01 3.500000e+00 2.500000e+02
      vertex   3.800000e+01 3.500000e+00 2.500000e+02
    endloop
  endfacet
  facet normal -0.000000e+00 -0.000000e+00 -1.000000e+00
    outer loop
      vertex   5.000000e+01 5.500000e+00 2.420000e+02
      vertex   5.000000e+01 3.500000e+00 2.420000e+02
      vertex   3.800000e+01 5.500000e+00 2.420000e+02
    endloop
  endfacet
  facet normal 0.000000e+00 0.000000e+00 -1.000000e+00
    outer loop
      vertex   3.800000e+01 5.500000e+00 2.420000e+02
      vertex   5.000000e+01 3.500000e+00 2.420000e+02
      vertex   3.800000e+01 3.500000e+00 2.420000e+02
    endloop
  endfacet
  facet normal 0.000000e+00 -0.000000e+00 1.000000e+00
    outer loop
      vertex   5.000000e+01 3.500000e+00 2.500000e+02
      vertex   5.000000e+01 5.500000e+00 2.500000e+02
      vertex   3.800000e+01 3.500000e+00 2.500000e+02
    endloop
  endfacet
  facet normal 0.000000e+00 0.000000e+00 1.000000e+00
    outer loop
      vertex   3.800000e+01 3.500000e+00 2.500000e+02
      vertex   5.000000e+01 5.500000e+00 2.500000e+02
      vertex   3.800000e+01 5.500000e+00 2.500000e+02
    endloop
  endfacet
  facet normal -1.000000e+00 -0.000000e+00 -0.000000e+00
    outer loop
      vertex   3.800000e+01 5.500000e+00 2.500000e+02
      vertex   3.800000e+01 5.500000e+00 2.420000e+02
      vertex   3.800000e+01 3.500000e+00 2.500000e+02
    endloop
  endfacet
  facet normal -1.000000e+00 0.000000e+00 0.000000e+00
    outer loop
      vertex   3.800000e+01 3.500000e+00 2.500000e+02
      vertex   3.800000e+01 5.500000e+00 2.420000e+02
      vertex   3.800000e+01 3.500000e+00 2.420000e+02
    endloop
  endfacet
  facet normal 0.000000e+00 -0.000000e+00 1.000000e+00
    outer loop
      vertex   5.000000e+01 -1.500000e+00 2.420000e+02
      vertex   5.000000e+01 1.500000e+00 2.420000e+02
      vertex   3.800000e+01 -1.500000e+00 2.420000e+02
    endloop
  endfacet
  facet normal 0.000000e+00 0.000000e+00 1.000000e+00
    outer loop
      vertex   3.800000e+01 -1.500000e+00 2.420000e+02
      vertex   5.000000e+01 1.500000e+00 2.420000e+02
      vertex   3.800000e+01 1.500000e+00 2.420000e+02
    endloop
  endfacet
  facet normal 0.000000e+00 -1.000000e+00 0.000000e+00
    outer loop
      vertex   5.000000e+01 -1.500000e+00 2.405000e+02
      vertex   5.000000e+01 -1.500000e+00 2.420000e+02
      vertex   3.800000e+01 -1.500000e+00 2.405000e+02
    endloop
  endfacet
  facet normal 0.000000e+00 -1.000000e+00 0.000000e+00
    outer loop
      vertex   3.800000e+01 -1.500000e+00 2.405000e+02
      vertex   5.000000e+01 -1.500000e+00 2.420000e+02
      vertex   3.800000e+01 -1.500000e+00 2.420000e+02
    endloop
  endfacet
  facet normal 0.000000e+00 0.000000e+00 -1.000000e+00
    outer loop
      vertex   3.800000e+01 -1.500000e+00 2.405000e+02
      vertex   3.800000e+01 1.500000e+00 2.405000e+02
      vertex   5.000000e+01 -1.500000e+00 2.405000e+02
    endloop
  endfacet
  facet normal 0.000000e+00 0.000000e+00 -1.000000e+00
    outer loop
      vertex   5.000000e+01 -1.500000e+00 2.405000e+02
      vertex   3.800000e+01 1.500000e+00 2.405000e+02
      vertex   5.000000e+01 1.500000e+00 2.405000e+02
    endloop
  endfacet
  facet normal 0.000000e+00 0.000000e+00 -1.000000e+00
    outer loop
      vertex   5.000000e+01 -1.500000e+00 2.405000e+02
      vertex   5.000000e+01 1.500000e+00 2.405000e+02
      vertex   5.300000e+01 -5.500000e+00 2.405000e+02
    endloop
  endfacet
  facet normal 0.000000e+00 0.000000e+00 -1.000000e+00
    outer loop
      vertex   5.300000e+01 -5.500000e+00 2.405000e+02
      vertex   5.000000e+01 1.500000e+00 2.405000e+02
      vertex   5.300000e+01 5.500000e+00 2.405000e+02
    endloop
  endfacet
  facet normal -0.000000e+00 0.000000e+00 -1.000000e+00
    outer loop
      vertex   5.300000e+01 5.500000e+00 2.405000e+02
      vertex   5.000000e+01 1.500000e+00 2.405000e+02
      vertex   5.000000e+01 5.500000e+00 2.405000e+02
    endloop
  endfacet
  facet normal 0.000000e+00 0.000000e+00 -1.000000e+00
    outer loop
      vertex   5.300000e+01 -5.500000e+00 2.405000e+02
      vertex   5.000000e+01 -5.500000e+00 2.405000e+02
      vertex   5.000000e+01 -1.500000e+00 2.405000e+02
    endloop
  endfacet
  facet normal 0.000000e+00 1.000000e+00 0.000000e+00
    outer loop
      vertex   5.000000e+01 1.500000e+00 2.420000e+02
      vertex   5.000000e+01 1.500000e+00 2.405000e+02
      vertex   3.800000e+01 1.500000e+00 2.420000e+02
    endloop
  endfacet
  facet normal 0.000000e+00 1.000000e+00 0.000000e+00
    outer loop
      vertex   3.800000e+01 1.500000e+00 2.420000e+02
      vertex   5.000000e+01 1.500000e+00 2.405000e+02
      vertex   3.800000e+01 1.500000e+00 2.405000e+02
    endloop
  endfacet
  facet normal -1.000000e+00 -0.000000e+00 -0.000000e+00
    outer loop
      vertex   3.800000e+01 1.500000e+00 2.420000e+02
      vertex   3.800000e+01 1.500000e+00 2.405000e+02
      vertex   3.800000e+01 -1.500000e+00 2.420000e+02
    endloop
  endfacet
  facet normal -1.000000e+00 0.000000e+00 0.000000e+00
    outer loop
      vertex   3.800000e+01 -1.500000e+00 2.420000e+02
      vertex   3.800000e+01 1.500000e+00 2.405000e+02
      vertex   3.800000e+01 -1.500000e+00 2.405000e+02
    endloop
  endfacet
  facet normal 0.000000e+00 -1.000000e+00 0.000000e+00
    outer loop
      vertex   5.000000e+01 1.500000e+00 2.585000e+02
      vertex   5.000000e+01 1.500000e+00 2.595000e+02
      vertex   3.800000e+01 1.500000e+00 2.585000e+02
    endloop
  endfacet
  facet normal 0.000000e+00 -1.000000e+00 0.000000e+00
    outer loop
      vertex   3.800000e+01 1.500000e+00 2.585000e+02
      vertex   5.000000e+01 1.500000e+00 2.595000e+02
      vertex   3.800000e+01 1.500000e+00 2.595000e+02
    endloop
  endfacet
  facet normal -0.000000e+00 -0.000000e+00 -1.000000e+00
    outer loop
      vertex   5.000000e+01 3.500000e+00 2.585000e+02
      vertex   5.000000e+01 1.500000e+00 2.585000e+02
      vertex   3.800000e+01 3.500000e+00 2.585000e+02
    endloop
  endfacet
  facet normal 0.000000e+00 0.000000e+00 -1.000000e+00
    outer loop
      vertex   3.800000e+01 3.500000e+00 2.585000e+02
      vertex   5.000000e+01 1.500000e+00 2.585000e+02
      vertex   3.800000e+01 1.500000e+00 2.585000e+02
    endloop
  endfacet
  facet normal 0.000000e+00 -1.000000e+00 0.000000e+00
    outer loop
      vertex   5.000000e+01 3.500000e+00 2.516000e+02
      vertex   5.000000e+01 3.500000e+00 2.585000e+02
      vertex   3.800000e+01 3.500000e+00 2.516000e+02
    endloop
  endfacet
  facet normal 0.000000e+00 -1.000000e+00 0.000000e+00
    outer loop
      vertex   3.800000e+01 3.500000e+00 2.516000e+02
      vertex   5.000000e+01 3.500000e+00 2.585000e+02
      vertex   3.800000e+01 3.500000e+00 2.585000e+02
    endloop
  endfacet
  facet normal -0.000000e+00 -0.000000e+00 -1.000000e+00
    outer loop
      vertex   5.000000e+01 5.500000e+00 2.516000e+02
      vertex   5.000000e+01 3.500000e+00 2.516000e+02
      vertex   3.800000e+01 5.500000e+00 2.516000e+02
    endloop
  endfacet
  facet normal 0.000000e+00 0.000000e+00 -1.000000e+00
    outer loop
      vertex   3.800000e+01 5.500000e+00 2.516000e+02
      vertex   5.000000e+01 3.500000e+00 2.516000e+02
      vertex   3.800000e+01 3.500000e+00 2.516000e+02
    endloop
  endfacet
  facet normal 0.000000e+00 1.000000e+00 0.000000e+00
    outer loop
      vertex   3.800000e+01 5.500000e+00 2.516000e+02
      vertex   3.800000e+01 5.500000e+00 2.595000e+02
      vertex   5.000000e+01 5.500000e+00 2.516000e+02
    endloop
  endfacet
  facet normal 0.000000e+00 1.000000e+00 -0.000000e+00
    outer loop
      vertex   5.000000e+01 5.500000e+00 2.516000e+02
      vertex   3.800000e+01 5.500000e+00 2.595000e+02
      vertex   5.300000e+01 5.500000e+00 2.595000e+02
    endloop
  endfacet
  facet normal -0.000000e+00 1.000000e+00 0.000000e+00
    outer loop
      vertex   5.000000e+01 5.500000e+00 2.516000e+02
      vertex   5.300000e+01 5.500000e+00 2.595000e+02
      vertex   5.000000e+01 5.500000e+00 2.500000e+02
    endloop
  endfacet
  facet normal -0.000000e+00 1.000000e+00 0.000000e+00
    outer loop
      vertex   5.000000e+01 5.500000e+00 2.500000e+02
      vertex   5.300000e+01 5.500000e+00 2.595000e+02
      vertex   5.300000e+01 5.500000e+00 2.405000e+02
    endloop
  endfacet
  facet normal 0.000000e+00 1.000000e+00 0.000000e+00
    outer loop
      vertex   5.000000e+01 5.500000e+00 2.500000e+02
      vertex   5.300000e+01 5.500000e+00 2.405000e+02
      vertex   5.000000e+01 5.500000e+00 2.420000e+02
    endloop
  endfacet
  facet normal 0.000000e+00 1.000000e+00 0.000000e+00
    outer loop
      vertex   5.000000e+01 5.500000e+00 2.420000e+02
      vertex   5.300000e+01 5.500000e+00 2.405000e+02
      vertex   5.000000e+01 5.500000e+00 2.405000e+02
    endloop
  endfacet
  facet normal 0.000000e+00 1.000000e+00 0.000000e+00
    outer loop
      vertex   3.800000e+01 5.500000e+00 2.420000e+02
      vertex   3.800000e+01 5.500000e+00 2.500000e+02
      vertex   5.000000e+01 5.500000e+00 2.420000e+02
    endloop
  endfacet
  facet normal 0.000000e+00 1.000000e+00 -0.000000e+00
    outer loop
      vertex   5.000000e+01 5.500000e+00 2.420000e+02
      vertex   3.800000e+01 5.500000e+00 2.500000e+02
      vertex   5.000000e+01 5.500000e+00 2.500000e+02
    endloop
  endfacet
  facet normal -1.000000e+00 0.000000e+00 0.000000e+00
    outer loop
      vertex   3.800000e+01 1.500000e+00 2.585000e+02
      vertex   3.800000e+01 1.500000e+00 2.595000e+02
      vertex   3.800000e+01 3.500000e+00 2.585000e+02
    endloop
  endfacet
  facet normal -1.000000e+00 0.000000e+00 0.000000e+00
    outer loop
      vertex   3.800000e+01 3.500000e+00 2.585000e+02
      vertex   3.800000e+01 1.500000e+00 2.595000e+02
      vertex   3.800000e+01 5.500000e+00 2.595000e+02
    endloop
  endfacet
  facet normal -1.000000e+00 0.000000e+00 0.000000e+00
    outer loop
      vertex   3.800000e+01 3.500000e+00 2.585000e+02
      vertex   3.800000e+01 5.500000e+00 2.595000e+02
      vertex   3.800000e+01 5.500000e+00 2.516000e+02
    endloop
  endfacet
  facet normal -1.000000e+00 0.000000e+00 0.000000e+00
    outer loop
      vertex   3.800000e+01 5.500000e+00 2.516000e+02
      vertex   3.800000e+01 3.500000e+00 2.516000e+02
      vertex   3.800000e+01 3.500000e+00 2.585000e+02
    endloop
  endfacet
  facet normal -0.000000e+00 0.000000e+00 1.000000e+00
    outer loop
      vertex   3.800000e+01 -1.500000e+00 2.595000e+02
      vertex   3.800000e+01 -5.500000e+00 2.595000e+02
      vertex   5.000000e+01 -1.500000e+00 2.595000e+02
    endloop
  endfacet
  facet normal 0.000000e+00 0.000000e+00 1.000000e+00
    outer loop
      vertex   5.000000e+01 -1.500000e+00 2.595000e+02
      vertex   3.800000e+01 -5.500000e+00 2.595000e+02
      vertex   5.300000e+01 -5.500000e+00 2.595000e+02
    endloop
  endfacet
  facet normal -0.000000e+00 0.000000e+00 1.000000e+00
    outer loop
      vertex   5.000000e+01 -1.500000e+00 2.595000e+02
      vertex   5.300000e+01 -5.500000e+00 2.595000e+02
      vertex   5.300000e+01 5.500000e+00 2.595000e+02
    endloop
  endfacet
  facet normal 0.000000e+00 0.000000e+00 1.000000e+00
    outer loop
      vertex   5.000000e+01 -1.500000e+00 2.595000e+02
      vertex   5.300000e+01 5.500000e+00 2.595000e+02
      vertex   5.000000e+01 1.500000e+00 2.595000e+02
    endloop
  endfacet
  facet normal 0.000000e+00 -0.000000e+00 1.000000e+00
    outer loop
      vertex   5.000000e+01 1.500000e+00 2.595000e+02
      vertex   5.300000e+01 5.500000e+00 2.595000e+02
      vertex   3.800000e+01 5.500000e+00 2.595000e+02
    endloop
  endfacet
  facet normal 0.000000e+00 0.000000e+00 1.000000e+00
    outer loop
      vertex   5.000000e+01 1.500000e+00 2.595000e+02
      vertex   3.800000e+01 5.500000e+00 2.595000e+02
      vertex   3.800000e+01 1.500000e+00 2.595000e+02
    endloop
  endfacet
  facet normal 0.000000e+00 -1.000000e+00 0.000000e+00
    outer loop
      vertex   3.800000e+01 -5.500000e+00 2.595000e+02
      vertex   5.000000e+01 -5.500000e+00 2.516000e+02
      vertex   5.300000e+01 -5.500000e+00 2.595000e+02
    endloop
  endfacet
  facet normal 0.000000e+00 -1.000000e+00 0.000000e+00
    outer loop
      vertex   5.300000e+01 -5.500000e+00 2.595000e+02
      vertex   5.000000e+01 -5.500000e+00 2.516000e+02
      vertex   5.000000e+01 -5.500000e+00 2.500000e+02
    endloop
  endfacet
  facet normal 0.000000e+00 -1.000000e+00 -0.000000e+00
    outer loop
      vertex   5.300000e+01 -5.500000e+00 2.595000e+02
      vertex   5.000000e+01 -5.500000e+00 2.500000e+02
      vertex   5.300000e+01 -5.500000e+00 2.405000e+02
    endloop
  endfacet
  facet normal 0.000000e+00 -1.000000e+00 0.000000e+00
    outer loop
      vertex   5.300000e+01 -5.500000e+00 2.405000e+02
      vertex   5.000000e+01 -5.500000e+00 2.500000e+02
      vertex   5.000000e+01 -5.500000e+00 2.420000e+02
    endloop
  endfacet
  facet normal 0.000000e+00 -1.000000e+00 0.000000e+00
    outer loop
      vertex   5.300000e+01 -5.500000e+00 2.405000e+02
      vertex   5.000000e+01 -5.500000e+00 2.420000e+02
      vertex   5.000000e+01 -5.500000e+00 2.405000e+02
    endloop
  endfacet
  facet normal 0.000000e+00 -1.000000e+00 0.000000e+00
    outer loop
      vertex   3.800000e+01 -5.500000e+00 2.595000e+02
      vertex   3.800000e+01 -5.500000e+00 2.516000e+02
      vertex   5.000000e+01 -5.500000e+00 2.516000e+02
    endloop
  endfacet
  facet normal 0.000000e+00 -1.000000e+00 0.000000e+00
    outer loop
      vertex   3.800000e+01 -5.500000e+00 2.500000e+02
      vertex   3.800000e+01 -5.500000e+00 2.420000e+02
      vertex   5.000000e+01 -5.500000e+00 2.500000e+02
    endloop
  endfacet
  facet normal 0.000000e+00 -1.000000e+00 -0.000000e+00
    outer loop
      vertex   5.000000e+01 -5.500000e+00 2.500000e+02
      vertex   3.800000e+01 -5.500000e+00 2.420000e+02
      vertex   5.000000e+01 -5.500000e+00 2.420000e+02
    endloop
  endfacet
  facet normal -0.000000e+00 -0.000000e+00 -1.000000e+00
    outer loop
      vertex   5.000000e+01 -3.500000e+00 2.516000e+02
      vertex   5.000000e+01 -5.500000e+00 2.516000e+02
      vertex   3.800000e+01 -3.500000e+00 2.516000e+02
    endloop
  endfacet
  facet normal 0.000000e+00 0.000000e+00 -1.000000e+00
    outer loop
      vertex   3.800000e+01 -3.500000e+00 2.516000e+02
      vertex   5.000000e+01 -5.500000e+00 2.516000e+02
      vertex   3.800000e+01 -5.500000e+00 2.516000e+02
    endloop
  endfacet
  facet normal 0.000000e+00 1.000000e+00 0.000000e+00
    outer loop
      vertex   5.000000e+01 -3.500000e+00 2.585000e+02
      vertex   5.000000e+01 -3.500000e+00 2.516000e+02
      vertex   3.800000e+01 -3.500000e+00 2.585000e+02
    endloop
  endfacet
  facet normal 0.000000e+00 1.000000e+00 0.000000e+00
    outer loop
      vertex   3.800000e+01 -3.500000e+00 2.585000e+02
      vertex   5.000000e+01 -3.500000e+00 2.516000e+02
      vertex   3.800000e+01 -3.500000e+00 2.516000e+02
    endloop
  endfacet
  facet normal -0.000000e+00 -0.000000e+00 -1.000000e+00
    outer loop
      vertex   5.000000e+01 -1.500000e+00 2.585000e+02
      vertex   5.000000e+01 -3.500000e+00 2.585000e+02
      vertex   3.800000e+01 -1.500000e+00 2.585000e+02
    endloop
  endfacet
  facet normal 0.000000e+00 0.000000e+00 -1.000000e+00
    outer loop
      vertex   3.800000e+01 -1.500000e+00 2.585000e+02
      vertex   5.000000e+01 -3.500000e+00 2.585000e+02
      vertex   3.800000e+01 -3.500000e+00 2.585000e+02
    endloop
  endfacet
  facet normal 0.000000e+00 1.000000e+00 0.000000e+00
    outer loop
      vertex   5.000000e+01 -1.500000e+00 2.595000e+02
      vertex   5.000000e+01 -1.500000e+00 2.585000e+02
      vertex   3.800000e+01 -1.500000e+00 2.595000e+02
    endloop
  endfacet
  facet normal 0.000000e+00 1.000000e+00 0.000000e+00
    outer loop
      vertex   3.800000e+01 -1.500000e+00 2.595000e+02
      vertex   5.000000e+01 -1.500000e+00 2.585000e+02
      vertex   3.800000e+01 -1.500000e+00 2.585000e+02
    endloop
  endfacet
  facet normal -1.000000e+00 0.000000e+00 0.000000e+00
    outer loop
      vertex   3.800000e+01 -1.500000e+00 2.585000e+02
      vertex   3.800000e+01 -3.500000e+00 2.585000e+02
      vertex   3.800000e+01 -1.500000e+00 2.595000e+02
    endloop
  endfacet
  facet normal -1.000000e+00 -0.000000e+00 0.000000e+00
    outer loop
      vertex   3.800000e+01 -1.500000e+00 2.595000e+02
      vertex   3.800000e+01 -3.500000e+00 2.585000e+02
      vertex   3.800000e+01 -5.500000e+00 2.595000e+02
    endloop
  endfacet
  facet normal -1.000000e+00 0.000000e+00 0.000000e+00
    outer loop
      vertex   3.800000e+01 -5.500000e+00 2.595000e+02
      vertex   3.800000e+01 -3.500000e+00 2.585000e+02
      vertex   3.800000e+01 -5.500000e+00 2.516000e+02
    endloop
  endfacet
  facet normal -1.000000e+00 0.000000e+00 0.000000e+00
    outer loop
      vertex   3.800000e+01 -5.500000e+00 2.516000e+02
      vertex   3.800000e+01 -3.500000e+00 2.585000e+02
      vertex   3.800000e+01 -3.500000e+00 2.516000e+02
    endloop
  endfacet
endsolid
