solid ASCII
  facet normal 7.071068e-01 -7.071068e-01 0.000000e+00
    outer loop
      vertex   8.000000e+01 -7.234315e+01 1.000000e+01
      vertex   9.234315e+01 -6.000000e+01 1.000000e+01
      vertex   8.000000e+01 -7.234315e+01 1.200000e+01
    endloop
  endfacet
  facet normal 7.071068e-01 -7.071068e-01 0.000000e+00
    outer loop
      vertex   8.000000e+01 -7.234315e+01 1.200000e+01
      vertex   9.234315e+01 -6.000000e+01 1.000000e+01
      vertex   9.234315e+01 -6.000000e+01 1.200000e+01
    endloop
  endfacet
  facet normal 1.000000e+00 0.000000e+00 0.000000e+00
    outer loop
      vertex   8.000000e+01 -8.300000e+01 1.000000e+01
      vertex   8.000000e+01 -7.234315e+01 1.000000e+01
      vertex   8.000000e+01 -8.300000e+01 1.200000e+01
    endloop
  endfacet
  facet normal 1.000000e+00 -0.000000e+00 0.000000e+00
    outer loop
      vertex   8.000000e+01 -8.300000e+01 1.200000e+01
      vertex   8.000000e+01 -7.234315e+01 1.000000e+01
      vertex   8.000000e+01 -7.234315e+01 1.200000e+01
    endloop
  endfacet
  facet normal 0.000000e+00 -1.000000e+00 0.000000e+00
    outer loop
      vertex   -8.000000e+01 -8.300000e+01 1.000000e+01
      vertex   8.000000e+01 -8.300000e+01 1.000000e+01
      vertex   -8.000000e+01 -8.300000e+01 1.200000e+01
    endloop
  endfacet
  facet normal 0.000000e+00 -1.000000e+00 0.000000e+00
    outer loop
      vertex   -8.000000e+01 -8.300000e+01 1.200000e+01
      vertex   8.000000e+01 -8.300000e+01 1.000000e+01
      vertex   8.000000e+01 -8.300000e+01 1.200000e+01
    endloop
  endfacet
  facet normal -1.000000e+00 0.000000e+00 7.105427e-15
    outer loop
      vertex   -8.000000e+01 -7.234315e+01 1.000000e+01
      vertex   -8.000000e+01 -8.300000e+01 1.000000e+01
      vertex   -8.000000e+01 -7.234315e+01 1.200000e+01
    endloop
  endfacet
  facet normal -1.000000e+00 0.000000e+00 7.105427e-15
    outer loop
      vertex   -8.000000e+01 -7.234315e+01 1.200000e+01
      vertex   -8.000000e+01 -8.300000e+01 1.000000e+01
      vertex   -8.000000e+01 -8.300000e+01 1.200000e+01
    endloop
  endfacet
  facet normal -7.071068e-01 -7.071068e-01 5.024296e-15
    outer loop
      vertex   -9.234315e+01 -6.000000e+01 1.000000e+01
      vertex   -8.000000e+01 -7.234315e+01 1.000000e+01
      vertex   -9.234315e+01 -6.000000e+01 1.200000e+01
    endloop
  endfacet
  facet normal -7.071068e-01 -7.071068e-01 4.884618e-15
    outer loop
      vertex   -9.234315e+01 -6.000000e+01 1.200000e+01
      vertex   -8.000000e+01 -7.234315e+01 1.000000e+01
      vertex   -8.000000e+01 -7.234315e+01 1.200000e+01
    endloop
  endfacet
  facet normal 0.000000e+00 -1.000000e+00 0.000000e+00
    outer loop
      vertex   -1.030000e+02 -6.000000e+01 1.000000e+01
      vertex   -9.234315e+01 -6.000000e+01 1.000000e+01
      vertex   -1.030000e+02 -6.000000e+01 1.200000e+01
    endloop
  endfacet
  facet normal 0.000000e+00 -1.000000e+00 0.000000e+00
    outer loop
      vertex   -1.030000e+02 -6.000000e+01 1.200000e+01
      vertex   -9.234315e+01 -6.000000e+01 1.000000e+01
      vertex   -9.234315e+01 -6.000000e+01 1.200000e+01
    endloop
  endfacet
  facet normal -1.000000e+00 -0.000000e+00 -1.421085e-14
    outer loop
      vertex   -1.030000e+02 -7.000000e+00 1.000000e+01
      vertex   -1.030000e+02 -6.000000e+01 1.000000e+01
      vertex   -1.030000e+02 -7.000000e+00 1.200000e+01
    endloop
  endfacet
  facet normal -1.000000e+00 -0.000000e+00 -1.421085e-14
    outer loop
      vertex   -1.030000e+02 -7.000000e+00 1.200000e+01
      vertex   -1.030000e+02 -6.000000e+01 1.000000e+01
      vertex   -1.030000e+02 -6.000000e+01 1.200000e+01
    endloop
  endfacet
  facet normal 0.000000e+00 1.000000e+00 8.881784e-16
    outer loop
      vertex   -2.300000e+01 -7.000000e+00 1.000000e+01
      vertex   -1.030000e+02 -7.000000e+00 1.000000e+01
      vertex   -2.300000e+01 -7.000000e+00 1.200000e+01
    endloop
  endfacet
  facet normal 0.000000e+00 1.000000e+00 8.881784e-16
    outer loop
      vertex   -2.300000e+01 -7.000000e+00 1.200000e+01
      vertex   -1.030000e+02 -7.000000e+00 1.000000e+01
      vertex   -1.030000e+02 -7.000000e+00 1.200000e+01
    endloop
  endfacet
  facet normal 1.000000e+00 0.000000e+00 0.000000e+00
    outer loop
      vertex   -2.300000e+01 -2.600000e+01 1.000000e+01
      vertex   -2.300000e+01 -7.000000e+00 1.000000e+01
      vertex   -2.300000e+01 -2.600000e+01 1.200000e+01
    endloop
  endfacet
  facet normal 1.000000e+00 -0.000000e+00 0.000000e+00
    outer loop
      vertex   -2.300000e+01 -2.600000e+01 1.200000e+01
      vertex   -2.300000e+01 -7.000000e+00 1.000000e+01
      vertex   -2.300000e+01 -7.000000e+00 1.200000e+01
    endloop
  endfacet
  facet normal 0.000000e+00 1.000000e+00 0.000000e+00
    outer loop
      vertex   -1.134791e+01 -2.600000e+01 1.000000e+01
      vertex   -2.300000e+01 -2.600000e+01 1.000000e+01
      vertex   -1.134791e+01 -2.600000e+01 1.200000e+01
    endloop
  endfacet
  facet normal 0.000000e+00 1.000000e+00 0.000000e+00
    outer loop
      vertex   -1.134791e+01 -2.600000e+01 1.200000e+01
      vertex   -2.300000e+01 -2.600000e+01 1.000000e+01
      vertex   -2.300000e+01 -2.600000e+01 1.200000e+01
    endloop
  endfacet
  facet normal 1.000000e+00 -0.000000e+00 1.776357e-15
    outer loop
      vertex   -1.134791e+01 -4.500000e+01 1.000000e+01
      vertex   -1.134791e+01 -2.600000e+01 1.000000e+01
      vertex   -1.134791e+01 -4.500000e+01 1.200000e+01
    endloop
  endfacet
  facet normal 1.000000e+00 -0.000000e+00 1.776357e-15
    outer loop
      vertex   -1.134791e+01 -4.500000e+01 1.200000e+01
      vertex   -1.134791e+01 -2.600000e+01 1.000000e+01
      vertex   -1.134791e+01 -2.600000e+01 1.200000e+01
    endloop
  endfacet
  facet normal 0.000000e+00 1.000000e+00 -0.000000e+00
    outer loop
      vertex   1.100000e+01 -4.500000e+01 1.000000e+01
      vertex   -1.134791e+01 -4.500000e+01 1.000000e+01
      vertex   1.100000e+01 -4.500000e+01 1.200000e+01
    endloop
  endfacet
  facet normal 0.000000e+00 1.000000e+00 0.000000e+00
    outer loop
      vertex   1.100000e+01 -4.500000e+01 1.200000e+01
      vertex   -1.134791e+01 -4.500000e+01 1.000000e+01
      vertex   -1.134791e+01 -4.500000e+01 1.200000e+01
    endloop
  endfacet
  facet normal -1.000000e+00 0.000000e+00 0.000000e+00
    outer loop
      vertex   1.100000e+01 -2.600000e+01 1.000000e+01
      vertex   1.100000e+01 -4.500000e+01 1.000000e+01
      vertex   1.100000e+01 -2.600000e+01 1.200000e+01
    endloop
  endfacet
  facet normal -1.000000e+00 -0.000000e+00 0.000000e+00
    outer loop
      vertex   1.100000e+01 -2.600000e+01 1.200000e+01
      vertex   1.100000e+01 -4.500000e+01 1.000000e+01
      vertex   1.100000e+01 -4.500000e+01 1.200000e+01
    endloop
  endfacet
  facet normal 0.000000e+00 1.000000e+00 -0.000000e+00
    outer loop
      vertex   2.300000e+01 -2.600000e+01 1.000000e+01
      vertex   1.100000e+01 -2.600000e+01 1.000000e+01
      vertex   2.300000e+01 -2.600000e+01 1.200000e+01
    endloop
  endfacet
  facet normal 0.000000e+00 1.000000e+00 0.000000e+00
    outer loop
      vertex   2.300000e+01 -2.600000e+01 1.200000e+01
      vertex   1.100000e+01 -2.600000e+01 1.000000e+01
      vertex   1.100000e+01 -2.600000e+01 1.200000e+01
    endloop
  endfacet
  facet normal -1.000000e+00 0.000000e+00 0.000000e+00
    outer loop
      vertex   2.300000e+01 -7.000000e+00 1.000000e+01
      vertex   2.300000e+01 -2.600000e+01 1.000000e+01
      vertex   2.300000e+01 -7.000000e+00 1.200000e+01
    endloop
  endfacet
  facet normal -1.000000e+00 -0.000000e+00 0.000000e+00
    outer loop
      vertex   2.300000e+01 -7.000000e+00 1.200000e+01
      vertex   2.300000e+01 -2.600000e+01 1.000000e+01
      vertex   2.300000e+01 -2.600000e+01 1.200000e+01
    endloop
  endfacet
  facet normal 0.000000e+00 1.000000e+00 -8.881784e-16
    outer loop
      vertex   1.030000e+02 -7.000000e+00 1.000000e+01
      vertex   2.300000e+01 -7.000000e+00 1.000000e+01
      vertex   1.030000e+02 -7.000000e+00 1.200000e+01
    endloop
  endfacet
  facet normal 0.000000e+00 1.000000e+00 -8.881784e-16
    outer loop
      vertex   1.030000e+02 -7.000000e+00 1.200000e+01
      vertex   2.300000e+01 -7.000000e+00 1.000000e+01
      vertex   2.300000e+01 -7.000000e+00 1.200000e+01
    endloop
  endfacet
  facet normal 1.000000e+00 0.000000e+00 0.000000e+00
    outer loop
      vertex   1.030000e+02 -6.000000e+01 1.000000e+01
      vertex   1.030000e+02 -7.000000e+00 1.000000e+01
      vertex   1.030000e+02 -6.000000e+01 1.200000e+01
    endloop
  endfacet
  facet normal 1.000000e+00 -0.000000e+00 0.000000e+00
    outer loop
      vertex   1.030000e+02 -6.000000e+01 1.200000e+01
      vertex   1.030000e+02 -7.000000e+00 1.000000e+01
      vertex   1.030000e+02 -7.000000e+00 1.200000e+01
    endloop
  endfacet
  facet normal 0.000000e+00 -1.000000e+00 0.000000e+00
    outer loop
      vertex   9.234315e+01 -6.000000e+01 1.000000e+01
      vertex   1.030000e+02 -6.000000e+01 1.000000e+01
      vertex   9.234315e+01 -6.000000e+01 1.200000e+01
    endloop
  endfacet
  facet normal 0.000000e+00 -1.000000e+00 0.000000e+00
    outer loop
      vertex   9.234315e+01 -6.000000e+01 1.200000e+01
      vertex   1.030000e+02 -6.000000e+01 1.000000e+01
      vertex   1.030000e+02 -6.000000e+01 1.200000e+01
    endloop
  endfacet
  facet normal 0.000000e+00 -0.000000e+00 1.000000e+00
    outer loop
      vertex   1.030000e+02 -6.000000e+01 1.200000e+01
      vertex   1.030000e+02 -7.000000e+00 1.200000e+01
      vertex   9.234315e+01 -6.000000e+01 1.200000e+01
    endloop
  endfacet
  facet normal 0.000000e+00 -0.000000e+00 1.000000e+00
    outer loop
      vertex   9.234315e+01 -6.000000e+01 1.200000e+01
      vertex   1.030000e+02 -7.000000e+00 1.200000e+01
      vertex   2.300000e+01 -2.600000e+01 1.200000e+01
    endloop
  endfacet
  facet normal 0.000000e+00 0.000000e+00 1.000000e+00
    outer loop
      vertex   9.234315e+01 -6.000000e+01 1.200000e+01
      vertex   2.300000e+01 -2.600000e+01 1.200000e+01
      vertex   1.100000e+01 -4.500000e+01 1.200000e+01
    endloop
  endfacet
  facet normal 0.000000e+00 0.000000e+00 1.000000e+00
    outer loop
      vertex   1.100000e+01 -4.500000e+01 1.200000e+01
      vertex   2.300000e+01 -2.600000e+01 1.200000e+01
      vertex   1.100000e+01 -2.600000e+01 1.200000e+01
    endloop
  endfacet
  facet normal 0.000000e+00 0.000000e+00 1.000000e+00
    outer loop
      vertex   1.030000e+02 -7.000000e+00 1.200000e+01
      vertex   2.300000e+01 -7.000000e+00 1.200000e+01
      vertex   2.300000e+01 -2.600000e+01 1.200000e+01
    endloop
  endfacet
  facet normal -0.000000e+00 0.000000e+00 1.000000e+00
    outer loop
      vertex   -1.134791e+01 -4.500000e+01 1.200000e+01
      vertex   -8.000000e+01 -7.234315e+01 1.200000e+01
      vertex   1.100000e+01 -4.500000e+01 1.200000e+01
    endloop
  endfacet
  facet normal 0.000000e+00 0.000000e+00 1.000000e+00
    outer loop
      vertex   1.100000e+01 -4.500000e+01 1.200000e+01
      vertex   -8.000000e+01 -7.234315e+01 1.200000e+01
      vertex   8.000000e+01 -7.234315e+01 1.200000e+01
    endloop
  endfacet
  facet normal 0.000000e+00 0.000000e+00 1.000000e+00
    outer loop
      vertex   1.100000e+01 -4.500000e+01 1.200000e+01
      vertex   8.000000e+01 -7.234315e+01 1.200000e+01
      vertex   9.234315e+01 -6.000000e+01 1.200000e+01
    endloop
  endfacet
  facet normal 0.000000e+00 0.000000e+00 1.000000e+00
    outer loop
      vertex   -1.134791e+01 -2.600000e+01 1.200000e+01
      vertex   -2.300000e+01 -2.600000e+01 1.200000e+01
      vertex   -1.134791e+01 -4.500000e+01 1.200000e+01
    endloop
  endfacet
  facet normal 0.000000e+00 0.000000e+00 1.000000e+00
    outer loop
      vertex   -1.134791e+01 -4.500000e+01 1.200000e+01
      vertex   -2.300000e+01 -2.600000e+01 1.200000e+01
      vertex   -9.234315e+01 -6.000000e+01 1.200000e+01
    endloop
  endfacet
  facet normal 0.000000e+00 0.000000e+00 1.000000e+00
    outer loop
      vertex   -1.134791e+01 -4.500000e+01 1.200000e+01
      vertex   -9.234315e+01 -6.000000e+01 1.200000e+01
      vertex   -8.000000e+01 -7.234315e+01 1.200000e+01
    endloop
  endfacet
  facet normal 0.000000e+00 0.000000e+00 1.000000e+00
    outer loop
      vertex   -2.300000e+01 -7.000000e+00 1.200000e+01
      vertex   -1.030000e+02 -7.000000e+00 1.200000e+01
      vertex   -2.300000e+01 -2.600000e+01 1.200000e+01
    endloop
  endfacet
  facet normal 0.000000e+00 0.000000e+00 1.000000e+00
    outer loop
      vertex   -2.300000e+01 -2.600000e+01 1.200000e+01
      vertex   -1.030000e+02 -7.000000e+00 1.200000e+01
      vertex   -9.234315e+01 -6.000000e+01 1.200000e+01
    endloop
  endfacet
  facet normal 0.000000e+00 0.000000e+00 1.000000e+00
    outer loop
      vertex   -1.030000e+02 -7.000000e+00 1.200000e+01
      vertex   -1.030000e+02 -6.000000e+01 1.200000e+01
      vertex   -9.234315e+01 -6.000000e+01 1.200000e+01
    endloop
  endfacet
  facet normal 0.000000e+00 0.000000e+00 1.000000e+00
    outer loop
      vertex   -8.000000e+01 -8.300000e+01 1.200000e+01
      vertex   8.000000e+01 -8.300000e+01 1.200000e+01
      vertex   -8.000000e+01 -7.234315e+01 1.200000e+01
    endloop
  endfacet
  facet normal -0.000000e+00 0.000000e+00 1.000000e+00
    outer loop
      vertex   -8.000000e+01 -7.234315e+01 1.200000e+01
      vertex   8.000000e+01 -8.300000e+01 1.200000e+01
      vertex   8.000000e+01 -7.234315e+01 1.200000e+01
    endloop
  endfacet
  facet normal 0.000000e+00 0.000000e+00 -1.000000e+00
    outer loop
      vertex   1.030000e+02 -6.000000e+01 1.000000e+01
      vertex   9.234315e+01 -6.000000e+01 1.000000e+01
      vertex   1.030000e+02 -7.000000e+00 1.000000e+01
    endloop
  endfacet
  facet normal 0.000000e+00 0.000000e+00 -1.000000e+00
    outer loop
      vertex   1.030000e+02 -7.000000e+00 1.000000e+01
      vertex   9.234315e+01 -6.000000e+01 1.000000e+01
      vertex   2.300000e+01 -2.600000e+01 1.000000e+01
    endloop
  endfacet
  facet normal -0.000000e+00 0.000000e+00 -1.000000e+00
    outer loop
      vertex   1.030000e+02 -7.000000e+00 1.000000e+01
      vertex   2.300000e+01 -2.600000e+01 1.000000e+01
      vertex   2.300000e+01 -7.000000e+00 1.000000e+01
    endloop
  endfacet
  facet normal 0.000000e+00 -0.000000e+00 -1.000000e+00
    outer loop
      vertex   2.300000e+01 -2.600000e+01 1.000000e+01
      vertex   9.234315e+01 -6.000000e+01 1.000000e+01
      vertex   1.100000e+01 -4.500000e+01 1.000000e+01
    endloop
  endfacet
  facet normal 0.000000e+00 0.000000e+00 -1.000000e+00
    outer loop
      vertex   1.100000e+01 -4.500000e+01 1.000000e+01
      vertex   9.234315e+01 -6.000000e+01 1.000000e+01
      vertex   8.000000e+01 -7.234315e+01 1.000000e+01
    endloop
  endfacet
  facet normal 0.000000e+00 -0.000000e+00 -1.000000e+00
    outer loop
      vertex   1.100000e+01 -4.500000e+01 1.000000e+01
      vertex   8.000000e+01 -7.234315e+01 1.000000e+01
      vertex   -8.000000e+01 -7.234315e+01 1.000000e+01
    endloop
  endfacet
  facet normal 0.000000e+00 0.000000e+00 -1.000000e+00
    outer loop
      vertex   -8.000000e+01 -7.234315e+01 1.000000e+01
      vertex   8.000000e+01 -7.234315e+01 1.000000e+01
      vertex   -8.000000e+01 -8.300000e+01 1.000000e+01
    endloop
  endfacet
  facet normal 0.000000e+00 0.000000e+00 -1.000000e+00
    outer loop
      vertex   -8.000000e+01 -8.300000e+01 1.000000e+01
      vertex   8.000000e+01 -7.234315e+01 1.000000e+01
      vertex   8.000000e+01 -8.300000e+01 1.000000e+01
    endloop
  endfacet
  facet normal -0.000000e+00 0.000000e+00 -1.000000e+00
    outer loop
      vertex   1.100000e+01 -4.500000e+01 1.000000e+01
      vertex   -8.000000e+01 -7.234315e+01 1.000000e+01
      vertex   -1.134791e+01 -4.500000e+01 1.000000e+01
    endloop
  endfacet
  facet normal 0.000000e+00 0.000000e+00 -1.000000e+00
    outer loop
      vertex   -1.134791e+01 -4.500000e+01 1.000000e+01
      vertex   -8.000000e+01 -7.234315e+01 1.000000e+01
      vertex   -9.234315e+01 -6.000000e+01 1.000000e+01
    endloop
  endfacet
  facet normal -0.000000e+00 0.000000e+00 -1.000000e+00
    outer loop
      vertex   -1.134791e+01 -4.500000e+01 1.000000e+01
      vertex   -9.234315e+01 -6.000000e+01 1.000000e+01
      vertex   -2.300000e+01 -2.600000e+01 1.000000e+01
    endloop
  endfacet
  facet normal -0.000000e+00 0.000000e+00 -1.000000e+00
    outer loop
      vertex   -2.300000e+01 -2.600000e+01 1.000000e+01
      vertex   -9.234315e+01 -6.000000e+01 1.000000e+01
      vertex   -1.030000e+02 -7.000000e+00 1.000000e+01
    endloop
  endfacet
  facet normal 0.000000e+00 0.000000e+00 -1.000000e+00
    outer loop
      vertex   -2.300000e+01 -2.600000e+01 1.000000e+01
      vertex   -1.030000e+02 -7.000000e+00 1.000000e+01
      vertex   -2.300000e+01 -7.000000e+00 1.000000e+01
    endloop
  endfacet
  facet normal 0.000000e+00 0.000000e+00 -1.000000e+00
    outer loop
      vertex   -9.234315e+01 -6.000000e+01 1.000000e+01
      vertex   -1.030000e+02 -6.000000e+01 1.000000e+01
      vertex   -1.030000e+02 -7.000000e+00 1.000000e+01
    endloop
  endfacet
  facet normal 0.000000e+00 0.000000e+00 -1.000000e+00
    outer loop
      vertex   -2.300000e+01 -2.600000e+01 1.000000e+01
      vertex   -1.134791e+01 -2.600000e+01 1.000000e+01
      vertex   -1.134791e+01 -4.500000e+01 1.000000e+01
    endloop
  endfacet
  facet normal 0.000000e+00 0.000000e+00 -1.000000e+00
    outer loop
      vertex   1.100000e+01 -4.500000e+01 1.000000e+01
      vertex   1.100000e+01 -2.600000e+01 1.000000e+01
      vertex   2.300000e+01 -2.600000e+01 1.000000e+01
    endloop
  endfacet
endsolid
