solid ASCII
  facet normal 7.071068e-01 -7.071068e-01 0.000000e+00
    outer loop
      vertex   8.000000e+01 1.482843e+01 1.000000e+01
      vertex   9.517157e+01 3.000000e+01 1.000000e+01
      vertex   8.000000e+01 1.482843e+01 1.200000e+01
    endloop
  endfacet
  facet normal 7.071068e-01 -7.071068e-01 0.000000e+00
    outer loop
      vertex   8.000000e+01 1.482843e+01 1.200000e+01
      vertex   9.517157e+01 3.000000e+01 1.000000e+01
      vertex   9.517157e+01 3.000000e+01 1.200000e+01
    endloop
  endfacet
  facet normal 1.000000e+00 0.000000e+00 -0.000000e+00
    outer loop
      vertex   8.000000e+01 7.000000e+00 1.000000e+01
      vertex   8.000000e+01 1.482843e+01 1.000000e+01
      vertex   8.000000e+01 7.000000e+00 1.200000e+01
    endloop
  endfacet
  facet normal 1.000000e+00 -0.000000e+00 0.000000e+00
    outer loop
      vertex   8.000000e+01 7.000000e+00 1.200000e+01
      vertex   8.000000e+01 1.482843e+01 1.000000e+01
      vertex   8.000000e+01 1.482843e+01 1.200000e+01
    endloop
  endfacet
  facet normal 0.000000e+00 -1.000000e+00 -1.332268e-15
    outer loop
      vertex   2.300000e+01 7.000000e+00 1.000000e+01
      vertex   8.000000e+01 7.000000e+00 1.000000e+01
      vertex   2.300000e+01 7.000000e+00 1.200000e+01
    endloop
  endfacet
  facet normal 0.000000e+00 -1.000000e+00 -1.332268e-15
    outer loop
      vertex   2.300000e+01 7.000000e+00 1.200000e+01
      vertex   8.000000e+01 7.000000e+00 1.000000e+01
      vertex   8.000000e+01 7.000000e+00 1.200000e+01
    endloop
  endfacet
  facet normal -1.000000e+00 0.000000e+00 0.000000e+00
    outer loop
      vertex   2.300000e+01 1.800000e+01 1.000000e+01
      vertex   2.300000e+01 7.000000e+00 1.000000e+01
      vertex   2.300000e+01 1.800000e+01 1.200000e+01
    endloop
  endfacet
  facet normal -1.000000e+00 -0.000000e+00 0.000000e+00
    outer loop
      vertex   2.300000e+01 1.800000e+01 1.200000e+01
      vertex   2.300000e+01 7.000000e+00 1.000000e+01
      vertex   2.300000e+01 7.000000e+00 1.200000e+01
    endloop
  endfacet
  facet normal 0.000000e+00 -1.000000e+00 0.000000e+00
    outer loop
      vertex   1.100000e+01 1.800000e+01 1.000000e+01
      vertex   2.300000e+01 1.800000e+01 1.000000e+01
      vertex   1.100000e+01 1.800000e+01 1.200000e+01
    endloop
  endfacet
  facet normal 0.000000e+00 -1.000000e+00 0.000000e+00
    outer loop
      vertex   1.100000e+01 1.800000e+01 1.200000e+01
      vertex   2.300000e+01 1.800000e+01 1.000000e+01
      vertex   2.300000e+01 1.800000e+01 1.200000e+01
    endloop
  endfacet
  facet normal -1.000000e+00 0.000000e+00 0.000000e+00
    outer loop
      vertex   1.100000e+01 4.500000e+01 1.000000e+01
      vertex   1.100000e+01 1.800000e+01 1.000000e+01
      vertex   1.100000e+01 4.500000e+01 1.200000e+01
    endloop
  endfacet
  facet normal -1.000000e+00 -0.000000e+00 0.000000e+00
    outer loop
      vertex   1.100000e+01 4.500000e+01 1.200000e+01
      vertex   1.100000e+01 1.800000e+01 1.000000e+01
      vertex   1.100000e+01 1.800000e+01 1.200000e+01
    endloop
  endfacet
  facet normal 0.000000e+00 -1.000000e+00 0.000000e+00
    outer loop
      vertex   -1.100000e+01 4.500000e+01 1.000000e+01
      vertex   1.100000e+01 4.500000e+01 1.000000e+01
      vertex   -1.100000e+01 4.500000e+01 1.200000e+01
    endloop
  endfacet
  facet normal 0.000000e+00 -1.000000e+00 0.000000e+00
    outer loop
      vertex   -1.100000e+01 4.500000e+01 1.200000e+01
      vertex   1.100000e+01 4.500000e+01 1.000000e+01
      vertex   1.100000e+01 4.500000e+01 1.200000e+01
    endloop
  endfacet
  facet normal 1.000000e+00 0.000000e+00 0.000000e+00
    outer loop
      vertex   -1.100000e+01 1.800000e+01 1.000000e+01
      vertex   -1.100000e+01 4.500000e+01 1.000000e+01
      vertex   -1.100000e+01 1.800000e+01 1.200000e+01
    endloop
  endfacet
  facet normal 1.000000e+00 -0.000000e+00 0.000000e+00
    outer loop
      vertex   -1.100000e+01 1.800000e+01 1.200000e+01
      vertex   -1.100000e+01 4.500000e+01 1.000000e+01
      vertex   -1.100000e+01 4.500000e+01 1.200000e+01
    endloop
  endfacet
  facet normal 0.000000e+00 -1.000000e+00 0.000000e+00
    outer loop
      vertex   -2.300000e+01 1.800000e+01 1.000000e+01
      vertex   -1.100000e+01 1.800000e+01 1.000000e+01
      vertex   -2.300000e+01 1.800000e+01 1.200000e+01
    endloop
  endfacet
  facet normal 0.000000e+00 -1.000000e+00 0.000000e+00
    outer loop
      vertex   -2.300000e+01 1.800000e+01 1.200000e+01
      vertex   -1.100000e+01 1.800000e+01 1.000000e+01
      vertex   -1.100000e+01 1.800000e+01 1.200000e+01
    endloop
  endfacet
  facet normal 1.000000e+00 0.000000e+00 -0.000000e+00
    outer loop
      vertex   -2.300000e+01 7.000000e+00 1.000000e+01
      vertex   -2.300000e+01 1.800000e+01 1.000000e+01
      vertex   -2.300000e+01 7.000000e+00 1.200000e+01
    endloop
  endfacet
  facet normal 1.000000e+00 -0.000000e+00 0.000000e+00
    outer loop
      vertex   -2.300000e+01 7.000000e+00 1.200000e+01
      vertex   -2.300000e+01 1.800000e+01 1.000000e+01
      vertex   -2.300000e+01 1.800000e+01 1.200000e+01
    endloop
  endfacet
  facet normal 0.000000e+00 -1.000000e+00 -1.332268e-15
    outer loop
      vertex   -8.000000e+01 7.000000e+00 1.000000e+01
      vertex   -2.300000e+01 7.000000e+00 1.000000e+01
      vertex   -8.000000e+01 7.000000e+00 1.200000e+01
    endloop
  endfacet
  facet normal 0.000000e+00 -1.000000e+00 -1.332268e-15
    outer loop
      vertex   -8.000000e+01 7.000000e+00 1.200000e+01
      vertex   -2.300000e+01 7.000000e+00 1.000000e+01
      vertex   -2.300000e+01 7.000000e+00 1.200000e+01
    endloop
  endfacet
  facet normal -1.000000e+00 0.000000e+00 0.000000e+00
    outer loop
      vertex   -8.000000e+01 1.482843e+01 1.000000e+01
      vertex   -8.000000e+01 7.000000e+00 1.000000e+01
      vertex   -8.000000e+01 1.482843e+01 1.200000e+01
    endloop
  endfacet
  facet normal -1.000000e+00 -0.000000e+00 0.000000e+00
    outer loop
      vertex   -8.000000e+01 1.482843e+01 1.200000e+01
      vertex   -8.000000e+01 7.000000e+00 1.000000e+01
      vertex   -8.000000e+01 7.000000e+00 1.200000e+01
    endloop
  endfacet
  facet normal -7.071068e-01 -7.071068e-01 0.000000e+00
    outer loop
      vertex   -9.517157e+01 3.000000e+01 1.000000e+01
      vertex   -8.000000e+01 1.482843e+01 1.000000e+01
      vertex   -9.517157e+01 3.000000e+01 1.200000e+01
    endloop
  endfacet
  facet normal -7.071068e-01 -7.071068e-01 0.000000e+00
    outer loop
      vertex   -9.517157e+01 3.000000e+01 1.200000e+01
      vertex   -8.000000e+01 1.482843e+01 1.000000e+01
      vertex   -8.000000e+01 1.482843e+01 1.200000e+01
    endloop
  endfacet
  facet normal 0.000000e+00 -1.000000e+00 0.000000e+00
    outer loop
      vertex   -1.030000e+02 3.000000e+01 1.000000e+01
      vertex   -9.517157e+01 3.000000e+01 1.000000e+01
      vertex   -1.030000e+02 3.000000e+01 1.200000e+01
    endloop
  endfacet
  facet normal 0.000000e+00 -1.000000e+00 0.000000e+00
    outer loop
      vertex   -1.030000e+02 3.000000e+01 1.200000e+01
      vertex   -9.517157e+01 3.000000e+01 1.000000e+01
      vertex   -9.517157e+01 3.000000e+01 1.200000e+01
    endloop
  endfacet
  facet normal -1.000000e+00 0.000000e+00 0.000000e+00
    outer loop
      vertex   -1.030000e+02 6.000000e+01 1.000000e+01
      vertex   -1.030000e+02 3.000000e+01 1.000000e+01
      vertex   -1.030000e+02 6.000000e+01 1.200000e+01
    endloop
  endfacet
  facet normal -1.000000e+00 -0.000000e+00 0.000000e+00
    outer loop
      vertex   -1.030000e+02 6.000000e+01 1.200000e+01
      vertex   -1.030000e+02 3.000000e+01 1.000000e+01
      vertex   -1.030000e+02 3.000000e+01 1.200000e+01
    endloop
  endfacet
  facet normal 0.000000e+00 1.000000e+00 -0.000000e+00
    outer loop
      vertex   -9.517157e+01 6.000000e+01 1.000000e+01
      vertex   -1.030000e+02 6.000000e+01 1.000000e+01
      vertex   -9.517157e+01 6.000000e+01 1.200000e+01
    endloop
  endfacet
  facet normal 0.000000e+00 1.000000e+00 0.000000e+00
    outer loop
      vertex   -9.517157e+01 6.000000e+01 1.200000e+01
      vertex   -1.030000e+02 6.000000e+01 1.000000e+01
      vertex   -1.030000e+02 6.000000e+01 1.200000e+01
    endloop
  endfacet
  facet normal -7.071068e-01 7.071068e-01 0.000000e+00
    outer loop
      vertex   -8.000000e+01 7.517157e+01 1.000000e+01
      vertex   -9.517157e+01 6.000000e+01 1.000000e+01
      vertex   -8.000000e+01 7.517157e+01 1.200000e+01
    endloop
  endfacet
  facet normal -7.071068e-01 7.071068e-01 0.000000e+00
    outer loop
      vertex   -8.000000e+01 7.517157e+01 1.200000e+01
      vertex   -9.517157e+01 6.000000e+01 1.000000e+01
      vertex   -9.517157e+01 6.000000e+01 1.200000e+01
    endloop
  endfacet
  facet normal -1.000000e+00 0.000000e+00 0.000000e+00
    outer loop
      vertex   -8.000000e+01 8.300000e+01 1.000000e+01
      vertex   -8.000000e+01 7.517157e+01 1.000000e+01
      vertex   -8.000000e+01 8.300000e+01 1.200000e+01
    endloop
  endfacet
  facet normal -1.000000e+00 -0.000000e+00 0.000000e+00
    outer loop
      vertex   -8.000000e+01 8.300000e+01 1.200000e+01
      vertex   -8.000000e+01 7.517157e+01 1.000000e+01
      vertex   -8.000000e+01 7.517157e+01 1.200000e+01
    endloop
  endfacet
  facet normal 0.000000e+00 1.000000e+00 -0.000000e+00
    outer loop
      vertex   8.000000e+01 8.300000e+01 1.000000e+01
      vertex   -8.000000e+01 8.300000e+01 1.000000e+01
      vertex   8.000000e+01 8.300000e+01 1.200000e+01
    endloop
  endfacet
  facet normal 0.000000e+00 1.000000e+00 0.000000e+00
    outer loop
      vertex   8.000000e+01 8.300000e+01 1.200000e+01
      vertex   -8.000000e+01 8.300000e+01 1.000000e+01
      vertex   -8.000000e+01 8.300000e+01 1.200000e+01
    endloop
  endfacet
  facet normal 1.000000e+00 0.000000e+00 0.000000e+00
    outer loop
      vertex   8.000000e+01 7.517157e+01 1.000000e+01
      vertex   8.000000e+01 8.300000e+01 1.000000e+01
      vertex   8.000000e+01 7.517157e+01 1.200000e+01
    endloop
  endfacet
  facet normal 1.000000e+00 -0.000000e+00 0.000000e+00
    outer loop
      vertex   8.000000e+01 7.517157e+01 1.200000e+01
      vertex   8.000000e+01 8.300000e+01 1.000000e+01
      vertex   8.000000e+01 8.300000e+01 1.200000e+01
    endloop
  endfacet
  facet normal 7.071068e-01 7.071068e-01 -0.000000e+00
    outer loop
      vertex   9.517157e+01 6.000000e+01 1.000000e+01
      vertex   8.000000e+01 7.517157e+01 1.000000e+01
      vertex   9.517157e+01 6.000000e+01 1.200000e+01
    endloop
  endfacet
  facet normal 7.071068e-01 7.071068e-01 0.000000e+00
    outer loop
      vertex   9.517157e+01 6.000000e+01 1.200000e+01
      vertex   8.000000e+01 7.517157e+01 1.000000e+01
      vertex   8.000000e+01 7.517157e+01 1.200000e+01
    endloop
  endfacet
  facet normal 0.000000e+00 1.000000e+00 -0.000000e+00
    outer loop
      vertex   1.030000e+02 6.000000e+01 1.000000e+01
      vertex   9.517157e+01 6.000000e+01 1.000000e+01
      vertex   1.030000e+02 6.000000e+01 1.200000e+01
    endloop
  endfacet
  facet normal 0.000000e+00 1.000000e+00 0.000000e+00
    outer loop
      vertex   1.030000e+02 6.000000e+01 1.200000e+01
      vertex   9.517157e+01 6.000000e+01 1.000000e+01
      vertex   9.517157e+01 6.000000e+01 1.200000e+01
    endloop
  endfacet
  facet normal 1.000000e+00 0.000000e+00 0.000000e+00
    outer loop
      vertex   1.030000e+02 3.000000e+01 1.000000e+01
      vertex   1.030000e+02 6.000000e+01 1.000000e+01
      vertex   1.030000e+02 3.000000e+01 1.200000e+01
    endloop
  endfacet
  facet normal 1.000000e+00 -0.000000e+00 0.000000e+00
    outer loop
      vertex   1.030000e+02 3.000000e+01 1.200000e+01
      vertex   1.030000e+02 6.000000e+01 1.000000e+01
      vertex   1.030000e+02 6.000000e+01 1.200000e+01
    endloop
  endfacet
  facet normal -4.538222e-16 -1.000000e+00 0.000000e+00
    outer loop
      vertex   9.517157e+01 3.000000e+01 1.000000e+01
      vertex   1.030000e+02 3.000000e+01 1.000000e+01
      vertex   9.517157e+01 3.000000e+01 1.200000e+01
    endloop
  endfacet
  facet normal -4.538222e-16 -1.000000e+00 0.000000e+00
    outer loop
      vertex   9.517157e+01 3.000000e+01 1.200000e+01
      vertex   1.030000e+02 3.000000e+01 1.000000e+01
      vertex   1.030000e+02 3.000000e+01 1.200000e+01
    endloop
  endfacet
  facet normal 0.000000e+00 -0.000000e+00 1.000000e+00
    outer loop
      vertex   1.030000e+02 3.000000e+01 1.200000e+01
      vertex   1.030000e+02 6.000000e+01 1.200000e+01
      vertex   9.517157e+01 3.000000e+01 1.200000e+01
    endloop
  endfacet
  facet normal 0.000000e+00 0.000000e+00 1.000000e+00
    outer loop
      vertex   9.517157e+01 3.000000e+01 1.200000e+01
      vertex   1.030000e+02 6.000000e+01 1.200000e+01
      vertex   9.517157e+01 6.000000e+01 1.200000e+01
    endloop
  endfacet
  facet normal 0.000000e+00 -0.000000e+00 1.000000e+00
    outer loop
      vertex   9.517157e+01 3.000000e+01 1.200000e+01
      vertex   9.517157e+01 6.000000e+01 1.200000e+01
      vertex   1.100000e+01 4.500000e+01 1.200000e+01
    endloop
  endfacet
  facet normal 0.000000e+00 0.000000e+00 1.000000e+00
    outer loop
      vertex   1.100000e+01 4.500000e+01 1.200000e+01
      vertex   9.517157e+01 6.000000e+01 1.200000e+01
      vertex   8.000000e+01 7.517157e+01 1.200000e+01
    endloop
  endfacet
  facet normal 0.000000e+00 -0.000000e+00 1.000000e+00
    outer loop
      vertex   1.100000e+01 4.500000e+01 1.200000e+01
      vertex   8.000000e+01 7.517157e+01 1.200000e+01
      vertex   -8.000000e+01 7.517157e+01 1.200000e+01
    endloop
  endfacet
  facet normal 0.000000e+00 0.000000e+00 1.000000e+00
    outer loop
      vertex   -8.000000e+01 7.517157e+01 1.200000e+01
      vertex   8.000000e+01 7.517157e+01 1.200000e+01
      vertex   -8.000000e+01 8.300000e+01 1.200000e+01
    endloop
  endfacet
  facet normal -0.000000e+00 0.000000e+00 1.000000e+00
    outer loop
      vertex   -8.000000e+01 8.300000e+01 1.200000e+01
      vertex   8.000000e+01 7.517157e+01 1.200000e+01
      vertex   8.000000e+01 8.300000e+01 1.200000e+01
    endloop
  endfacet
  facet normal 0.000000e+00 0.000000e+00 1.000000e+00
    outer loop
      vertex   1.100000e+01 4.500000e+01 1.200000e+01
      vertex   -8.000000e+01 7.517157e+01 1.200000e+01
      vertex   -1.100000e+01 4.500000e+01 1.200000e+01
    endloop
  endfacet
  facet normal 0.000000e+00 0.000000e+00 1.000000e+00
    outer loop
      vertex   -1.100000e+01 4.500000e+01 1.200000e+01
      vertex   -8.000000e+01 7.517157e+01 1.200000e+01
      vertex   -9.517157e+01 6.000000e+01 1.200000e+01
    endloop
  endfacet
  facet normal 0.000000e+00 0.000000e+00 1.000000e+00
    outer loop
      vertex   -1.100000e+01 4.500000e+01 1.200000e+01
      vertex   -9.517157e+01 6.000000e+01 1.200000e+01
      vertex   -9.517157e+01 3.000000e+01 1.200000e+01
    endloop
  endfacet
  facet normal 0.000000e+00 -0.000000e+00 1.000000e+00
    outer loop
      vertex   -9.517157e+01 3.000000e+01 1.200000e+01
      vertex   -9.517157e+01 6.000000e+01 1.200000e+01
      vertex   -1.030000e+02 3.000000e+01 1.200000e+01
    endloop
  endfacet
  facet normal 0.000000e+00 0.000000e+00 1.000000e+00
    outer loop
      vertex   -1.030000e+02 3.000000e+01 1.200000e+01
      vertex   -9.517157e+01 6.000000e+01 1.200000e+01
      vertex   -1.030000e+02 6.000000e+01 1.200000e+01
    endloop
  endfacet
  facet normal 0.000000e+00 0.000000e+00 1.000000e+00
    outer loop
      vertex   -1.100000e+01 4.500000e+01 1.200000e+01
      vertex   -9.517157e+01 3.000000e+01 1.200000e+01
      vertex   -2.300000e+01 1.800000e+01 1.200000e+01
    endloop
  endfacet
  facet normal 0.000000e+00 0.000000e+00 1.000000e+00
    outer loop
      vertex   -2.300000e+01 1.800000e+01 1.200000e+01
      vertex   -9.517157e+01 3.000000e+01 1.200000e+01
      vertex   -8.000000e+01 1.482843e+01 1.200000e+01
    endloop
  endfacet
  facet normal 0.000000e+00 0.000000e+00 1.000000e+00
    outer loop
      vertex   -2.300000e+01 1.800000e+01 1.200000e+01
      vertex   -8.000000e+01 1.482843e+01 1.200000e+01
      vertex   -2.300000e+01 7.000000e+00 1.200000e+01
    endloop
  endfacet
  facet normal 0.000000e+00 0.000000e+00 1.000000e+00
    outer loop
      vertex   -2.300000e+01 7.000000e+00 1.200000e+01
      vertex   -8.000000e+01 1.482843e+01 1.200000e+01
      vertex   -8.000000e+01 7.000000e+00 1.200000e+01
    endloop
  endfacet
  facet normal 0.000000e+00 0.000000e+00 1.000000e+00
    outer loop
      vertex   -2.300000e+01 1.800000e+01 1.200000e+01
      vertex   -1.100000e+01 1.800000e+01 1.200000e+01
      vertex   -1.100000e+01 4.500000e+01 1.200000e+01
    endloop
  endfacet
  facet normal 0.000000e+00 0.000000e+00 1.000000e+00
    outer loop
      vertex   1.100000e+01 1.800000e+01 1.200000e+01
      vertex   2.300000e+01 1.800000e+01 1.200000e+01
      vertex   1.100000e+01 4.500000e+01 1.200000e+01
    endloop
  endfacet
  facet normal 0.000000e+00 0.000000e+00 1.000000e+00
    outer loop
      vertex   1.100000e+01 4.500000e+01 1.200000e+01
      vertex   2.300000e+01 1.800000e+01 1.200000e+01
      vertex   9.517157e+01 3.000000e+01 1.200000e+01
    endloop
  endfacet
  facet normal 0.000000e+00 0.000000e+00 1.000000e+00
    outer loop
      vertex   9.517157e+01 3.000000e+01 1.200000e+01
      vertex   2.300000e+01 1.800000e+01 1.200000e+01
      vertex   8.000000e+01 1.482843e+01 1.200000e+01
    endloop
  endfacet
  facet normal 0.000000e+00 0.000000e+00 1.000000e+00
    outer loop
      vertex   8.000000e+01 1.482843e+01 1.200000e+01
      vertex   2.300000e+01 1.800000e+01 1.200000e+01
      vertex   2.300000e+01 7.000000e+00 1.200000e+01
    endloop
  endfacet
  facet normal 0.000000e+00 0.000000e+00 1.000000e+00
    outer loop
      vertex   8.000000e+01 1.482843e+01 1.200000e+01
      vertex   2.300000e+01 7.000000e+00 1.200000e+01
      vertex   8.000000e+01 7.000000e+00 1.200000e+01
    endloop
  endfacet
  facet normal -0.000000e+00 -0.000000e+00 -1.000000e+00
    outer loop
      vertex   1.030000e+02 6.000000e+01 1.000000e+01
      vertex   1.030000e+02 3.000000e+01 1.000000e+01
      vertex   9.517157e+01 6.000000e+01 1.000000e+01
    endloop
  endfacet
  facet normal 0.000000e+00 0.000000e+00 -1.000000e+00
    outer loop
      vertex   9.517157e+01 6.000000e+01 1.000000e+01
      vertex   1.030000e+02 3.000000e+01 1.000000e+01
      vertex   9.517157e+01 3.000000e+01 1.000000e+01
    endloop
  endfacet
  facet normal 0.000000e+00 -0.000000e+00 -1.000000e+00
    outer loop
      vertex   9.517157e+01 6.000000e+01 1.000000e+01
      vertex   9.517157e+01 3.000000e+01 1.000000e+01
      vertex   1.100000e+01 4.500000e+01 1.000000e+01
    endloop
  endfacet
  facet normal 0.000000e+00 0.000000e+00 -1.000000e+00
    outer loop
      vertex   1.100000e+01 4.500000e+01 1.000000e+01
      vertex   9.517157e+01 3.000000e+01 1.000000e+01
      vertex   2.300000e+01 1.800000e+01 1.000000e+01
    endloop
  endfacet
  facet normal 0.000000e+00 0.000000e+00 -1.000000e+00
    outer loop
      vertex   1.100000e+01 4.500000e+01 1.000000e+01
      vertex   2.300000e+01 1.800000e+01 1.000000e+01
      vertex   1.100000e+01 1.800000e+01 1.000000e+01
    endloop
  endfacet
  facet normal 0.000000e+00 0.000000e+00 -1.000000e+00
    outer loop
      vertex   9.517157e+01 3.000000e+01 1.000000e+01
      vertex   8.000000e+01 1.482843e+01 1.000000e+01
      vertex   2.300000e+01 1.800000e+01 1.000000e+01
    endloop
  endfacet
  facet normal 0.000000e+00 0.000000e+00 -1.000000e+00
    outer loop
      vertex   2.300000e+01 1.800000e+01 1.000000e+01
      vertex   8.000000e+01 1.482843e+01 1.000000e+01
      vertex   2.300000e+01 7.000000e+00 1.000000e+01
    endloop
  endfacet
  facet normal 0.000000e+00 0.000000e+00 -1.000000e+00
    outer loop
      vertex   2.300000e+01 7.000000e+00 1.000000e+01
      vertex   8.000000e+01 1.482843e+01 1.000000e+01
      vertex   8.000000e+01 7.000000e+00 1.000000e+01
    endloop
  endfacet
  facet normal -0.000000e+00 0.000000e+00 -1.000000e+00
    outer loop
      vertex   9.517157e+01 6.000000e+01 1.000000e+01
      vertex   1.100000e+01 4.500000e+01 1.000000e+01
      vertex   8.000000e+01 7.517157e+01 1.000000e+01
    endloop
  endfacet
  facet normal 0.000000e+00 0.000000e+00 -1.000000e+00
    outer loop
      vertex   8.000000e+01 7.517157e+01 1.000000e+01
      vertex   1.100000e+01 4.500000e+01 1.000000e+01
      vertex   -1.100000e+01 4.500000e+01 1.000000e+01
    endloop
  endfacet
  facet normal -0.000000e+00 0.000000e+00 -1.000000e+00
    outer loop
      vertex   8.000000e+01 7.517157e+01 1.000000e+01
      vertex   -1.100000e+01 4.500000e+01 1.000000e+01
      vertex   -8.000000e+01 7.517157e+01 1.000000e+01
    endloop
  endfacet
  facet normal 0.000000e+00 -0.000000e+00 -1.000000e+00
    outer loop
      vertex   -8.000000e+01 7.517157e+01 1.000000e+01
      vertex   -1.100000e+01 4.500000e+01 1.000000e+01
      vertex   -9.517157e+01 6.000000e+01 1.000000e+01
    endloop
  endfacet
  facet normal 0.000000e+00 0.000000e+00 -1.000000e+00
    outer loop
      vertex   -9.517157e+01 6.000000e+01 1.000000e+01
      vertex   -1.100000e+01 4.500000e+01 1.000000e+01
      vertex   -9.517157e+01 3.000000e+01 1.000000e+01
    endloop
  endfacet
  facet normal -0.000000e+00 -0.000000e+00 -1.000000e+00
    outer loop
      vertex   -9.517157e+01 6.000000e+01 1.000000e+01
      vertex   -9.517157e+01 3.000000e+01 1.000000e+01
      vertex   -1.030000e+02 6.000000e+01 1.000000e+01
    endloop
  endfacet
  facet normal 0.000000e+00 0.000000e+00 -1.000000e+00
    outer loop
      vertex   -1.030000e+02 6.000000e+01 1.000000e+01
      vertex   -9.517157e+01 3.000000e+01 1.000000e+01
      vertex   -1.030000e+02 3.000000e+01 1.000000e+01
    endloop
  endfacet
  facet normal 0.000000e+00 0.000000e+00 -1.000000e+00
    outer loop
      vertex   -1.100000e+01 1.800000e+01 1.000000e+01
      vertex   -2.300000e+01 1.800000e+01 1.000000e+01
      vertex   -1.100000e+01 4.500000e+01 1.000000e+01
    endloop
  endfacet
  facet normal 0.000000e+00 0.000000e+00 -1.000000e+00
    outer loop
      vertex   -1.100000e+01 4.500000e+01 1.000000e+01
      vertex   -2.300000e+01 1.800000e+01 1.000000e+01
      vertex   -9.517157e+01 3.000000e+01 1.000000e+01
    endloop
  endfacet
  facet normal 0.000000e+00 0.000000e+00 -1.000000e+00
    outer loop
      vertex   -9.517157e+01 3.000000e+01 1.000000e+01
      vertex   -2.300000e+01 1.800000e+01 1.000000e+01
      vertex   -8.000000e+01 1.482843e+01 1.000000e+01
    endloop
  endfacet
  facet normal 0.000000e+00 0.000000e+00 -1.000000e+00
    outer loop
      vertex   -8.000000e+01 1.482843e+01 1.000000e+01
      vertex   -2.300000e+01 1.800000e+01 1.000000e+01
      vertex   -2.300000e+01 7.000000e+00 1.000000e+01
    endloop
  endfacet
  facet normal 0.000000e+00 0.000000e+00 -1.000000e+00
    outer loop
      vertex   -8.000000e+01 1.482843e+01 1.000000e+01
      vertex   -2.300000e+01 7.000000e+00 1.000000e+01
      vertex   -8.000000e+01 7.000000e+00 1.000000e+01
    endloop
  endfacet
  facet normal 0.000000e+00 0.000000e+00 -1.000000e+00
    outer loop
      vertex   -8.000000e+01 8.300000e+01 1.000000e+01
      vertex   8.000000e+01 8.300000e+01 1.000000e+01
      vertex   -8.000000e+01 7.517157e+01 1.000000e+01
    endloop
  endfacet
  facet normal 0.000000e+00 0.000000e+00 -1.000000e+00
    outer loop
      vertex   -8.000000e+01 7.517157e+01 1.000000e+01
      vertex   8.000000e+01 8.300000e+01 1.000000e+01
      vertex   8.000000e+01 7.517157e+01 1.000000e+01
    endloop
  endfacet
endsolid
